<svg width="25" height="24" viewBox="0 0 25 24" fill="none" xmlns="http://www.w3.org/2000/svg">
<path d="M15.8333 10.5C15.8333 10.945 15.7013 11.38 15.4541 11.75C15.2068 12.12 14.8554 12.4084 14.4443 12.5787C14.0332 12.749 13.5808 12.7936 13.1443 12.7068C12.7078 12.62 12.3069 12.4057 11.9923 12.091C11.6776 11.7763 11.4633 11.3754 11.3765 10.939C11.2897 10.5025 11.3342 10.0501 11.5045 9.63896C11.6748 9.22783 11.9632 8.87643 12.3332 8.62919C12.7032 8.38196 13.1382 8.25 13.5833 8.25C14.18 8.25 14.7523 8.48705 15.1742 8.90901C15.5962 9.33097 15.8333 9.90326 15.8333 10.5ZM21.8333 3.75V20.25C21.8333 20.6478 21.6752 21.0294 21.3939 21.3107C21.1126 21.592 20.7311 21.75 20.3333 21.75H6.83325C6.43543 21.75 6.0539 21.592 5.77259 21.3107C5.49129 21.0294 5.33325 20.6478 5.33325 20.25V18H3.83325C3.63434 18 3.44357 17.921 3.30292 17.7803C3.16227 17.6397 3.08325 17.4489 3.08325 17.25C3.08325 17.0511 3.16227 16.8603 3.30292 16.7197C3.44357 16.579 3.63434 16.5 3.83325 16.5H5.33325V12.75H3.83325C3.63434 12.75 3.44357 12.671 3.30292 12.5303C3.16227 12.3897 3.08325 12.1989 3.08325 12C3.08325 11.8011 3.16227 11.6103 3.30292 11.4697C3.44357 11.329 3.63434 11.25 3.83325 11.25H5.33325V7.5H3.83325C3.63434 7.5 3.44357 7.42098 3.30292 7.28033C3.16227 7.13968 3.08325 6.94891 3.08325 6.75C3.08325 6.55109 3.16227 6.36032 3.30292 6.21967C3.44357 6.07902 3.63434 6 3.83325 6H5.33325V3.75C5.33325 3.35218 5.49129 2.97064 5.77259 2.68934C6.0539 2.40804 6.43543 2.25 6.83325 2.25H20.3333C20.7311 2.25 21.1126 2.40804 21.3939 2.68934C21.6752 2.97064 21.8333 3.35218 21.8333 3.75ZM18.6833 15.3C18.0191 14.4096 17.1335 13.7086 16.1145 13.2666C16.673 12.7567 17.0642 12.0899 17.2369 11.3537C17.4097 10.6175 17.3558 9.84624 17.0823 9.14121C16.8089 8.43617 16.3287 7.83028 15.7047 7.40304C15.0808 6.9758 14.3423 6.74718 13.5861 6.74718C12.8299 6.74718 12.0913 6.9758 11.4674 7.40304C10.8434 7.83028 10.3632 8.43617 10.0898 9.14121C9.81637 9.84624 9.76247 10.6175 9.93519 11.3537C10.1079 12.0899 10.4992 12.7567 11.0576 13.2666C10.0365 13.7077 9.14892 14.4088 8.48325 15.3C8.42416 15.3788 8.38116 15.4685 8.35672 15.5639C8.33227 15.6593 8.32686 15.7586 8.34079 15.8561C8.35472 15.9536 8.38772 16.0474 8.4379 16.1321C8.48808 16.2169 8.55446 16.2909 8.63325 16.35C8.71204 16.4091 8.80171 16.4521 8.89712 16.4765C8.99253 16.501 9.09182 16.5064 9.18932 16.4925C9.28682 16.4785 9.38062 16.4455 9.46537 16.3954C9.55012 16.3452 9.62416 16.2788 9.68325 16.2C10.1373 15.5945 10.7262 15.1031 11.4031 14.7647C12.08 14.4262 12.8264 14.25 13.5833 14.25C14.3401 14.25 15.0865 14.4262 15.7634 14.7647C16.4403 15.1031 17.0292 15.5945 17.4833 16.2C17.6026 16.3591 17.7803 16.4643 17.9772 16.4925C18.1741 16.5206 18.3741 16.4693 18.5333 16.35C18.6924 16.2307 18.7976 16.053 18.8257 15.8561C18.8538 15.6592 18.8026 15.4591 18.6833 15.3Z" fill="#CDD5DF"/>
</svg>
