<svg width="25" height="24" viewBox="0 0 25 24" fill="none" xmlns="http://www.w3.org/2000/svg">
<path d="M18.9167 3.00011H15.5174C15.096 2.52829 14.5797 2.15079 14.0023 1.89232C13.4248 1.63385 12.7994 1.50024 12.1667 1.50024C11.5341 1.50024 10.9086 1.63385 10.3312 1.89232C9.75384 2.15079 9.23753 2.52829 8.81612 3.00011H5.41675C5.01892 3.00011 4.63739 3.15814 4.35609 3.43945C4.07478 3.72075 3.91675 4.10228 3.91675 4.50011V20.2501C3.91675 20.6479 4.07478 21.0295 4.35609 21.3108C4.63739 21.5921 5.01892 21.7501 5.41675 21.7501H18.9167C19.3146 21.7501 19.6961 21.5921 19.9774 21.3108C20.2587 21.0295 20.4167 20.6479 20.4167 20.2501V4.50011C20.4167 4.10228 20.2587 3.72075 19.9774 3.43945C19.6961 3.15814 19.3146 3.00011 18.9167 3.00011ZM12.1667 3.00011C12.9624 3.00011 13.7255 3.31618 14.2881 3.87879C14.8507 4.4414 15.1667 5.20446 15.1667 6.00011H9.16675C9.16675 5.20446 9.48282 4.4414 10.0454 3.87879C10.608 3.31618 11.3711 3.00011 12.1667 3.00011ZM15.1667 15.0001H9.16675C8.96784 15.0001 8.77707 14.9211 8.63642 14.7804C8.49577 14.6398 8.41675 14.449 8.41675 14.2501C8.41675 14.0512 8.49577 13.8604 8.63642 13.7198C8.77707 13.5791 8.96784 13.5001 9.16675 13.5001H15.1667C15.3657 13.5001 15.5564 13.5791 15.6971 13.7198C15.8377 13.8604 15.9167 14.0512 15.9167 14.2501C15.9167 14.449 15.8377 14.6398 15.6971 14.7804C15.5564 14.9211 15.3657 15.0001 15.1667 15.0001ZM15.1667 12.0001H9.16675C8.96784 12.0001 8.77707 11.9211 8.63642 11.7804C8.49577 11.6398 8.41675 11.449 8.41675 11.2501C8.41675 11.0512 8.49577 10.8604 8.63642 10.7198C8.77707 10.5791 8.96784 10.5001 9.16675 10.5001H15.1667C15.3657 10.5001 15.5564 10.5791 15.6971 10.7198C15.8377 10.8604 15.9167 11.0512 15.9167 11.2501C15.9167 11.449 15.8377 11.6398 15.6971 11.7804C15.5564 11.9211 15.3657 12.0001 15.1667 12.0001Z" fill="#CDD5DF"/>
</svg>
